<?xml version="1.0" encoding="utf-8"?>
<!-- Generator: Adobe Illustrator 23.1.1, SVG Export Plug-In . SVG Version: 6.00 Build 0)  -->
<svg version="1.1" id="Layer_1" xmlns="http://www.w3.org/2000/svg" xmlns:xlink="http://www.w3.org/1999/xlink" x="0px" y="0px"
	 viewBox="0 0 529.9 208.8" style="enable-background:new 0 0 529.9 208.8;" xml:space="preserve">
<g>
	<g>
		<path d="M93,46.9l2.6-2.8c1.5,2.2,3.8,3.8,6.5,3.8c2.3,0,3.8-1.2,3.8-3.1c0-4.8-11.7-3.9-11.7-12.4c0-4.6,3.7-7.1,8-7.1
			c4,0,6.7,1.4,8.2,4.1l-2.6,2.7c-1.3-1.5-3-3-5.3-3c-2,0-3.4,1.2-3.4,2.8c0,4.4,12,3.8,12,12c0,5-3.7,7.6-8.5,7.6
			C97.5,51.9,94.5,49.6,93,46.9z"/>
		<path d="M149.2,29.8h-6.5v21.5h-4.8V29.8h-6.5v-4.1h17.8V29.8z"/>
		<path d="M184.9,44.8h-9l-2.2,6.5h-4.8l9-25.6h5.3l9,25.6H187L184.9,44.8z M183.8,41.5l-3.4-10.3l-3.5,10.3H183.8z"/>
		<path d="M221.6,41.9h-2.8v9.4H214V25.7h9.1c5.7,0,9.6,2.3,9.6,7.8c0,4.2-2.3,7-6,8l6.6,9.8h-5.6L221.6,41.9z M218.8,38.4h3.6
			c3.2,0,5-1.4,5-4.4c0-3-1.9-4.3-5-4.3h-3.6V38.4z"/>
		<path d="M274.2,44.1c0,4.8-3.5,7.2-8.9,7.2h-9.6V25.7h8.6c5.2,0,8.8,2.1,8.8,6.8c0,3.1-1.6,4.9-4.1,5.7
			C272.1,38.9,274.2,40.6,274.2,44.1z M260.4,29.5v7.2h3.3c2.6,0,4.3-1,4.3-3.6c0-2.6-1.7-3.6-4.3-3.6H260.4z M269,43.8
			c0-2.6-1.8-3.7-4.3-3.7h-4.3v7.5h4.3C267.2,47.5,269,46.3,269,43.8z"/>
		<path d="M296.7,41.8v-16h4.8v15.5c0,4.1,2,6.2,5.1,6.2c3.3,0,5.3-2.2,5.3-6.2V25.7h4.8v16c0,6.7-4,10.1-10.1,10.1
			C300.6,51.9,296.7,48.5,296.7,41.8z"/>
		<path d="M339.2,38.5c0-8.2,5.3-13.3,12.3-13.3c3.7,0,6.3,1.1,8.2,2.6l-1.4,4.3c-1.4-1.3-3.4-2.3-6.1-2.3c-4,0-7.9,3-7.9,8.8
			c0,5.8,3.7,8.8,7.9,8.8c3.2,0,5.2-1.2,6.7-2.7l1.4,4.2c-1.9,1.8-4.6,3.1-8.7,3.1C344.5,51.9,339.2,46.8,339.2,38.5z"/>
		<path d="M389.5,41.1l-2.3,3v7.3h-4.8V25.7h4.8v12l9.1-12h5.5l-9,11.5l9.7,14.1h-5.9L389.5,41.1z"/>
		<path d="M421.9,46.9l2.6-2.8c1.5,2.2,3.8,3.8,6.5,3.8c2.3,0,3.8-1.2,3.8-3.1c0-4.8-11.7-3.9-11.7-12.4c0-4.6,3.7-7.1,8-7.1
			c4,0,6.7,1.4,8.2,4.1l-2.6,2.7c-1.3-1.5-3-3-5.3-3c-2,0-3.4,1.2-3.4,2.8c0,4.4,12,3.8,12,12c0,5-3.7,7.6-8.5,7.6
			C426.3,51.9,423.3,49.6,421.9,46.9z"/>
	</g>
	<g>
		<path d="M458.4,30.9c0,3.2-2.5,5-5,5c-2.5,0-5-1.9-5-5c0-3.1,2.5-5,5-5C456,25.9,458.4,27.8,458.4,30.9z M457.4,30.9
			c0-2.8-2.1-4.1-4-4.1c-1.9,0-4,1.3-4,4.1c0,2.8,2.1,4.1,4,4.1C455.3,35.1,457.4,33.8,457.4,30.9z M454.4,31.5l1.2,1.7h-1.3
			l-0.9-1.6h-0.5v1.6h-1.1v-4.6h1.9c1.1,0,1.8,0.5,1.8,1.4C455.4,30.8,455,31.3,454.4,31.5z M452.9,30.9h0.5c0.5,0,0.8-0.3,0.8-0.7
			c0-0.5-0.3-0.7-0.8-0.7h-0.5V30.9z"/>
	</g>
</g>
<g>
	<g>
		<path d="M87.8,79.1v52.5H78v-23.1H55.3v23.1h-9.8V79.1h9.8v21.5H78V79.1H87.8z"/>
		<path d="M109.7,79.1h9.8v52.5h-9.8V79.1z"/>
		<path d="M136.9,122.6l5.3-5.7c3.1,4.4,7.8,7.8,13.4,7.8c4.7,0,7.8-2.5,7.8-6.3c0-9.9-24.1-8-24.1-25.4c0-9.5,7.6-14.5,16.4-14.5
			c8.2,0,13.7,2.8,16.8,8.4l-5.3,5.6c-2.7-3-6.1-6.1-11-6.1c-4.1,0-7,2.4-7,5.8c0,9.1,24.6,7.8,24.6,24.7c0,10.4-7.6,15.7-17.5,15.7
			C146,132.8,139.8,128,136.9,122.6z"/>
	</g>
	<g>
		<path d="M223,87.5h-13.4v44.2h-9.8V87.5h-13.4v-8.4H223V87.5z"/>
	</g>
	<g>
		<path d="M235.4,105.4c0-16.5,12.3-27.4,26.4-27.4c14.1,0,26.4,10.9,26.4,27.4c0,16.5-12.3,27.4-26.4,27.4
			C247.6,132.8,235.4,121.9,235.4,105.4z M277.8,105.4c0-12.3-8.1-18.3-16.1-18.3c-8,0-16,6-16,18.3c0,12.3,8,18.3,16,18.3
			C269.8,123.7,277.8,117.7,277.8,105.4z"/>
		<path d="M322.5,112.3h-5.8v19.3h-9.8V79.1h18.7c11.8,0,19.6,4.8,19.6,16c0,8.7-4.7,14.3-12.4,16.4l13.6,20.2h-11.5L322.5,112.3z
			 M316.7,105.2h7.5c6.7,0,10.4-3,10.4-9c0-6.1-3.8-8.7-10.4-8.7h-7.5V105.2z"/>
		<path d="M364.7,79.1h9.8v52.5h-9.8V79.1z"/>
		<path d="M424.2,118.3h-18.6l-4.4,13.4h-9.8L410,79.1h10.9l18.6,52.5h-10.8L424.2,118.3z M422,111.4l-7-21.2l-7.1,21.2H422z"/>
	</g>
	<g>
		<path d="M451.3,122.6l5.3-5.7c3.1,4.4,7.8,7.8,13.4,7.8c4.7,0,7.8-2.5,7.8-6.3c0-9.9-24.1-8-24.1-25.4c0-9.5,7.6-14.5,16.4-14.5
			c8.2,0,13.7,2.8,16.8,8.4l-5.3,5.6c-2.7-3-6.1-6.1-11-6.1c-4.1,0-7,2.4-7,5.8c0,9.1,24.6,7.8,24.6,24.7c0,10.4-7.6,15.7-17.5,15.7
			C460.4,132.8,454.2,128,451.3,122.6z"/>
	</g>
</g>
<g>
	<g>
		<path d="M71.6,182.3v4.1H58.4v-25.6h4.8v21.5H71.6z"/>
		<path d="M102.3,179.8h-9l-2.2,6.5h-4.8l9-25.6h5.3l9,25.6h-5.3L102.3,179.8z M101.2,176.5l-3.4-10.3l-3.5,10.3H101.2z"/>
	</g>
	<g>
		<path d="M140,164.8h-6.5v21.5h-4.8v-21.5h-6.5v-4.1H140V164.8z"/>
		<path d="M157,160.8h4.8v25.6H157V160.8z"/>
		<path d="M201.5,160.8v25.6h-4.8l-11.6-18v18h-4.4v-25.6h5l11.4,16.8v-16.8H201.5z"/>
		<path d="M254.5,179.8h-9l-2.2,6.5h-4.8l9-25.6h5.3l9,25.6h-5.3L254.5,179.8z M253.4,176.5l-3.4-10.3l-3.5,10.3H253.4z"/>
		<path d="M303.3,186.4l-2.3-18l-6.7,18H291l-6.8-18.1l-2.2,18.1h-4.4l3.1-25.6h5l7.1,18.3l7.1-18.3h5.1l3.1,25.6H303.3z"/>
		<path d="M331,164.8v6.5h8.1v3.8H331v7.3h9.5v4h-14.3v-25.6h14.3v4H331z"/>
		<path d="M365.8,177H363v9.4h-4.8v-25.6h9.1c5.7,0,9.6,2.3,9.6,7.8c0,4.2-2.3,7-6,8l6.6,9.8h-5.6L365.8,177z M363,173.5h3.6
			c3.2,0,5-1.4,5-4.4c0-3-1.9-4.3-5-4.3H363V173.5z"/>
		<path d="M394.6,160.8h4.8v25.6h-4.8V160.8z"/>
		<path d="M416.8,173.6c0-8.2,5.3-13.3,12.3-13.3c3.7,0,6.3,1.1,8.2,2.6l-1.4,4.3c-1.4-1.3-3.4-2.3-6.1-2.3c-4,0-7.9,3-7.9,8.8
			c0,5.8,3.7,8.8,7.9,8.8c3.2,0,5.2-1.2,6.7-2.7l1.4,4.2c-1.9,1.8-4.6,3.1-8.7,3.1C422.1,186.9,416.8,181.8,416.8,173.6z"/>
		<path d="M468.3,179.8h-9l-2.2,6.5h-4.8l9-25.6h5.3l9,25.6h-5.3L468.3,179.8z M467.2,176.5l-3.4-10.3l-3.5,10.3H467.2z"/>
	</g>
</g>
</svg>
